<svg width="401" height="446" xmlns="http://www.w3.org/2000/svg" xml:space="preserve" version="1.1">
 <style type="text/css">.st0{fill:#9d9da3;}</style>

 <g>
  <title>Layer 1</title>
  <path stroke="#ffffff" fill="#ffffff" id="svg_1" d="m397.33363,66.22227c0,-8.27778 -3.31111,-16.55557 -9.93334,-23.1778c-6.62223,-6.62223 -14.90001,-9.93334 -23.1778,-9.93334l-66.22227,0l0,-33.11114l-33.11114,0l0,33.11114l-132.44454,0l0,-33.11114l-33.11114,0l0,33.11114l-66.22227,0c-8.27778,0 -16.55557,3.31111 -23.1778,9.93334s-9.93334,14.90001 -9.93334,23.1778l0,331.11136c0,8.27778 3.31111,16.55557 9.93334,23.1778c6.62223,6.62223 14.90001,9.93334 23.1778,9.93334l66.22227,0l0,-33.11114l-66.22227,0l0,-331.11136l66.22227,0l0,33.11114l33.11114,0l0,-33.11114l132.44454,0l0,33.11114l33.11114,0l0,-33.11114l66.22227,0l0,99.33341l33.11114,0l0,-99.33341z" class="st0"/>
  <path stroke="#ffffff" fill="#ffffff" id="svg_2" d="m256.61099,177.63703l45.08678,88.37009l99.19092,14.42777l-72.13885,68.53191l18.03471,97.38745l-90.17357,-46.89025l-90.17357,46.89025l18.03471,-97.38745l-72.13885,-68.53191l100.99439,-14.42777l43.28331,-88.37009z" class="st0"/>
 </g>
</svg>