<svg id="Layer_1" data-name="Layer 1" xmlns="http://www.w3.org/2000/svg" xmlns:xlink="http://www.w3.org/1999/xlink" viewBox="0 0 18.92 24.71"><defs><style>.cls-1{fill:url(#linear-gradient);}.cls-2{fill:#b627f2;}.cls-3{fill:#da4bac;}</style><linearGradient id="linear-gradient" x1="515.07" y1="666.71" x2="515.07" y2="642" gradientUnits="userSpaceOnUse"><stop offset="0" stop-color="#da4bac"/><stop offset="1" stop-color="#b627f2"/></linearGradient></defs><title>ticket</title><path class="cls-1" d="M522.6,666.71h-4.06a0.49,0.49,0,0,1-.44-0.27c-0.6-1.21-1.95-3.14-3-3.14s-2.6,2.32-3,3.14a0.49,0.49,0,0,1-.44.27h-3.73a2.25,2.25,0,0,1-2.29-1.83,0.47,0.47,0,0,1,0-.08v-21a0.48,0.48,0,0,1,0-.1,2.21,2.21,0,0,1,2.32-1.69c3.94-.06,4.09,0,4.19,0a1.45,1.45,0,0,1,.62.61l0,0c1.33,2.67,2.56,2.54,2.57,2.54h0.09c0.67,0,1.22-.9,1.7-1.7l0.13-.22a2.57,2.57,0,0,1,1.32-1.27l0.13,0h3.61a1.93,1.93,0,0,1,2.22,1.79V664.6A2,2,0,0,1,522.6,666.71Zm-3.76-1h3.76a1,1,0,0,0,.94-1.14V643.81c0-.13-0.08-0.81-1.23-0.81h-3.51a2.52,2.52,0,0,0-.71.82L518,644c-0.58,1-1.3,2.14-2.51,2.17-0.37,0-2,.07-3.57-3.05l-0.12-.17c-0.47,0-2.25,0-3.83,0h0a1.26,1.26,0,0,0-1.31.87v20.89a1.27,1.27,0,0,0,1.31,1h3.43c0.48-.89,2-3.41,3.75-3.41S518.36,664.84,518.84,665.74Z" transform="translate(-505.61 -642)"/><path class="cls-2" d="M513.94,649.38h-3.69a0.49,0.49,0,1,1,0-1h3.69A0.49,0.49,0,1,1,513.94,649.38Z" transform="translate(-505.61 -642)"/><path class="cls-2" d="M520.59,649.38h-3.83a0.49,0.49,0,1,1,0-1h3.83A0.49,0.49,0,1,1,520.59,649.38Z" transform="translate(-505.61 -642)"/><path class="cls-3" d="M513.94,660.32h-3.69a0.49,0.49,0,1,1,0-1h3.69A0.49,0.49,0,1,1,513.94,660.32Z" transform="translate(-505.61 -642)"/><path class="cls-3" d="M520.59,660.32h-3.83a0.49,0.49,0,1,1,0-1h3.83A0.49,0.49,0,1,1,520.59,660.32Z" transform="translate(-505.61 -642)"/></svg>