<svg id="Layer_1" data-name="Layer 1" xmlns="http://www.w3.org/2000/svg" xmlns:xlink="http://www.w3.org/1999/xlink" viewBox="0 0 18.92 24.71"><defs><style>.cls-1{fill:url(#linear-gradient);}</style><linearGradient id="linear-gradient" x1="515.07" y1="666.71" x2="515.07" y2="642" gradientUnits="userSpaceOnUse"><stop offset="0" stop-color="#da4bac"/><stop offset="1" stop-color="#b627f2"/></linearGradient></defs><title>ticketFill</title><path class="cls-1" d="M522.71,642H518.9a2.32,2.32,0,0,0-1.08,1.1c-0.61,1-1.3,2.24-2.38,2.24,0,0-1.62.34-3.27-2.92a1.26,1.26,0,0,0-.39-0.42c-0.17-.06-4.24,0-4.24,0a1.86,1.86,0,0,0-1.93,1.35v21.85a1.86,1.86,0,0,0,1.9,1.48h3.94s1.78-3.55,3.64-3.55,3.64,3.55,3.64,3.55H523a1.54,1.54,0,0,0,1.52-1.69V643.38S524.53,642,522.71,642Zm-8.84,18.53H510a0.51,0.51,0,1,1,0-1h3.9A0.51,0.51,0,1,1,513.88,660.56Zm0-11.38H510a0.51,0.51,0,1,1,0-1h3.9A0.51,0.51,0,1,1,513.88,649.18Zm7,11.38h-4a0.51,0.51,0,1,1,0-1h4A0.51,0.51,0,1,1,520.89,660.56Zm0-11.38h-4a0.51,0.51,0,1,1,0-1h4A0.51,0.51,0,1,1,520.89,649.18Z" transform="translate(-505.61 -642)"/></svg>